# xmcd
#
# Track frame offsets: 
#        150
#        13217
#        28547
#        44254
#        69730
#        88838
#        104729
#        121634
#        143697
#        164273
#        191929
#        205539
#        237528
#        260515
#        278295
#        297340
#        313773
#        329956
#
# Disc length: 4621 seconds
#
# Revision: 0
# Processed by: cddbd v1.5.2PL0 Copyright (c) Steve Scherf et al.
# Submitted via: ExactAudioCopy v0.99pb4
#
DISCID=13120b12
DTITLE=Various Artist - body and soul: funky love
DYEAR=2007
DGENRE=R&B
TTITLE0=Ohio Players - Love Rollercoaster
TTITLE1=Rick James - Super Freak (Part 1)
TTITLE2=Commodores - Brick House
TTITLE3=Earth, Wind and Fire - Let's Groove
TTITLE4=Marvin Gaye - Got to Give It Up (Pt. 1)
TTITLE5=Rufus featuring Chaka Khan - Tell Me Something Good
TTITLE6=Cheryl Lynn - Got to Be Real
TTITLE7=The Whispers - And the Beat Goes On
TTITLE8=Mtume - Juicy Fruit
TTITLE9=Evelyn "Champagne" King - Love Come Down
TTITLE10=The Miracles - Love Machine (Part 1)
TTITLE11=Maze featuring Frankie Beverly - Back in Stride
TTITLE12=The Brothers Johnson - Strawberry Letter 23
TTITLE13=The Gap Band - Early in the Morning
TTITLE14=Ben E. King - Supernatural Thing - Part 1
TTITLE15=L.T.D. - (Every Time I Turn Around) Back in Love Again
TTITLE16=Jermaine Jackson - Let's Get Serious
TTITLE17=Shalamar - The Second Time Around
EXTD=
EXTT0=
EXTT1=
EXTT2=
EXTT3=
EXTT4=
EXTT5=
EXTT6=
EXTT7=
EXTT8=
EXTT9=
EXTT10=
EXTT11=
EXTT12=
EXTT13=
EXTT14=
EXTT15=
EXTT16=
EXTT17=
PLAYORDER=
